<svg width="17" height="14" viewBox="0 0 17 14" fill="none" xmlns="http://www.w3.org/2000/svg">
<path d="M2.55 14V12.4444H14.45V14H2.55ZM2.55 11.2778L1.46625 5.03611C1.43792 5.03611 1.4059 5.03948 1.3702 5.04622C1.3345 5.05296 1.30277 5.05608 1.275 5.05556C0.920835 5.05556 0.619935 4.942 0.372302 4.71489C0.124668 4.48778 0.000568598 4.21245 1.93182e-06 3.88889C-0.000564735 3.56533 0.123535 3.29 0.372302 3.06289C0.621068 2.83578 0.921968 2.72222 1.275 2.72222C1.62803 2.72222 1.92922 2.83578 2.17855 3.06289C2.42788 3.29 2.5517 3.56533 2.55 3.88889C2.55 3.97963 2.53923 4.06389 2.5177 4.14167C2.49617 4.21945 2.47152 4.29074 2.44375 4.35556L5.1 5.44445L7.75625 2.11945C7.60041 2.01574 7.47291 1.87963 7.37375 1.71111C7.27458 1.54259 7.225 1.36111 7.225 1.16667C7.225 0.842594 7.3491 0.567002 7.5973 0.339891C7.8455 0.11278 8.1464 -0.000516747 8.5 1.7717e-06C8.8536 0.00052029 9.15478 0.114076 9.40355 0.340668C9.65231 0.567261 9.77613 0.842594 9.775 1.16667C9.775 1.36111 9.72541 1.54259 9.62625 1.71111C9.52708 1.87963 9.39958 2.01574 9.24375 2.11945L11.9 5.44445L14.5562 4.35556C14.5279 4.29074 14.503 4.21945 14.4814 4.14167C14.4599 4.06389 14.4494 3.97963 14.45 3.88889C14.45 3.56482 14.5741 3.28922 14.8223 3.06211C15.0705 2.835 15.3714 2.72171 15.725 2.72222C16.0786 2.72274 16.3798 2.8363 16.6285 3.06289C16.8773 3.28948 17.0011 3.56482 17 3.88889C16.9989 4.21296 16.875 4.48856 16.6285 4.71567C16.382 4.94278 16.0809 5.05608 15.725 5.05556C15.6967 5.05556 15.6649 5.05245 15.6298 5.04622C15.5947 5.04 15.5626 5.03663 15.5337 5.03611L14.45 11.2778H2.55Z" fill="#AB4949"/>
</svg>
