<svg width="17" height="14" viewBox="0 0 17 14" fill="none" xmlns="http://www.w3.org/2000/svg">
<path d="M3.77778 14V12.4444H7.55555V10.0333C6.78426 9.89074 6.09576 9.62189 5.49005 9.22678C4.88435 8.83167 4.43952 8.3357 4.15556 7.73889C2.975 7.62222 1.98743 7.19781 1.19283 6.46567C0.398241 5.73352 0.00062963 4.87459 0 3.88889V3.11111C0 2.68333 0.185111 2.31726 0.555333 2.01289C0.925556 1.70852 1.37007 1.55607 1.88889 1.55556H3.77778V0H13.2222V1.55556H15.1111C15.6306 1.55556 16.0754 1.708 16.4456 2.01289C16.8158 2.31778 17.0006 2.68385 17 3.11111V3.88889C17 4.87407 16.6024 5.733 15.8072 6.46567C15.0119 7.19833 14.0244 7.62274 12.8444 7.73889C12.5611 8.33519 12.1166 8.83115 11.5109 9.22678C10.9052 9.62241 10.2164 9.89126 9.44444 10.0333V12.4444H13.2222V14H3.77778ZM3.77778 6.06667V3.11111H1.88889V3.88889C1.88889 4.38148 2.06204 4.82559 2.40833 5.22122C2.75463 5.61685 3.21111 5.89867 3.77778 6.06667ZM13.2222 6.06667C13.7889 5.89815 14.2454 5.61607 14.5917 5.22044C14.938 4.82481 15.1111 4.38096 15.1111 3.88889V3.11111H13.2222V6.06667Z" fill="#AB4949"/>
</svg>
