<svg width="100" height="100" viewBox="0 0 100 100" fill="none" xmlns="http://www.w3.org/2000/svg">
<path d="M11.1111 100C8.05557 100 5.44075 98.9129 3.26667 96.7389C1.09259 94.5646 0.00370371 91.9482 0 88.8889V11.1111C0 8.05557 1.08889 5.44075 3.26667 3.26667C5.44443 1.09259 8.05925 0.00370371 11.1111 0H72.2221L100 27.7778V88.8889C100 91.9443 98.9129 94.5611 96.7389 96.7389C94.565 98.9168 91.9482 100.004 88.8889 100H11.1111ZM22.2222 77.7779H77.7779V66.6668H22.2222V77.7779ZM22.2222 55.5557H77.7779V44.4443H22.2222V55.5557ZM66.6668 33.3333H88.8889L66.6668 11.1111V33.3333ZM22.2222 33.3333H50V22.2222H22.2222V33.3333Z" fill="white"/>
</svg>
