<svg width="12" height="16" viewBox="0 0 12 16" fill="none" xmlns="http://www.w3.org/2000/svg">
<path d="M12 0H0V1.59898L4.3575 5.08476C3.03505 5.54961 1.93986 6.55517 1.31262 7.88042C0.685387 9.20568 0.577437 10.7422 1.0125 12.1523C1.22774 12.8508 1.57007 13.4972 2.01989 14.0546C2.46971 14.6119 3.0182 15.0693 3.63398 15.4004C4.24977 15.7316 4.92076 15.9301 5.60858 15.9846C6.2964 16.0391 6.98756 15.9485 7.6425 15.718C8.69286 15.35 9.60741 14.6379 10.2558 13.6832C10.9041 12.7285 11.2532 11.58 11.2532 10.4014C11.2532 9.22278 10.9041 8.07426 10.2558 7.11958C9.60741 6.1649 8.69286 5.45278 7.6425 5.08476L12 1.59898V0ZM8.205 13.9911L6 12.616L3.795 13.9911L4.38 11.3288L2.4375 9.53793L4.995 9.30608L6 6.79567L7.005 9.30608L9.5625 9.53793L7.62 11.3288L8.205 13.9911Z" fill="#AB4949"/>
</svg>
