<svg width="48" height="48" viewBox="0 0 48 48" fill="none" xmlns="http://www.w3.org/2000/svg">
<circle cx="24" cy="24" r="24" fill="#7B2828"/>
<path d="M14.2 34V31.4444H33.8V34H14.2ZM14.2 29.5278L12.415 19.2736C12.3683 19.2736 12.3156 19.2792 12.2568 19.2902C12.198 19.3013 12.1457 19.3064 12.1 19.3056C11.5167 19.3056 11.0211 19.119 10.6132 18.7459C10.2053 18.3728 10.0009 17.9204 10 17.3889C9.99907 16.8573 10.2035 16.405 10.6132 16.0319C11.0229 15.6588 11.5185 15.4722 12.1 15.4722C12.6815 15.4722 13.1775 15.6588 13.5882 16.0319C13.9989 16.405 14.2028 16.8573 14.2 17.3889C14.2 17.538 14.1823 17.6764 14.1468 17.8042C14.1113 17.9319 14.0707 18.0491 14.025 18.1556L18.4 19.9444L22.775 14.4819C22.5183 14.3116 22.3083 14.088 22.145 13.8111C21.9817 13.5343 21.9 13.2361 21.9 12.9167C21.9 12.3843 22.1044 11.9315 22.5132 11.5584C22.922 11.1853 23.4176 10.9992 24 11C24.5824 11.0009 25.0785 11.1874 25.4882 11.5597C25.8979 11.9319 26.1019 12.3843 26.1 12.9167C26.1 13.2361 26.0183 13.5343 25.855 13.8111C25.6917 14.088 25.4817 14.3116 25.225 14.4819L29.6 19.9444L33.975 18.1556C33.9283 18.0491 33.8873 17.9319 33.8518 17.8042C33.8163 17.6764 33.7991 17.538 33.8 17.3889C33.8 16.8565 34.0044 16.4037 34.4132 16.0306C34.822 15.6575 35.3176 15.4714 35.9 15.4722C36.4824 15.4731 36.9785 15.6596 37.3882 16.0319C37.7979 16.4042 38.0019 16.8565 38 17.3889C37.9981 17.9213 37.7942 18.3741 37.3882 18.7472C36.9822 19.1203 36.4861 19.3064 35.9 19.3056C35.8533 19.3056 35.8011 19.3004 35.7432 19.2902C35.6853 19.28 35.6326 19.2745 35.585 19.2736L33.8 29.5278H14.2Z" fill="white"/>
</svg>
