<svg width="48" height="48" viewBox="0 0 48 48" fill="none" xmlns="http://www.w3.org/2000/svg">
<circle cx="24" cy="24" r="24" fill="#7B2828"/>
<path d="M15.4444 37V34.2222H21.8889V29.9167C20.5731 29.662 19.3986 29.1819 18.3654 28.4764C17.3321 27.7708 16.5733 26.8852 16.0889 25.8194C14.075 25.6111 12.3903 24.8532 11.0348 23.5458C9.67935 22.2384 9.00107 20.7046 9 18.9444V17.5556C9 16.7917 9.31578 16.138 9.94733 15.5944C10.5789 15.0509 11.3372 14.7787 12.2222 14.7778H15.4444V12H31.5556V14.7778H34.7778C35.6639 14.7778 36.4227 15.05 37.0543 15.5944C37.6858 16.1389 38.0011 16.7926 38 17.5556V18.9444C38 20.7037 37.3217 22.2375 35.9652 23.5458C34.6086 24.8542 32.9239 25.612 30.9111 25.8194C30.4278 26.8843 29.6695 27.7699 28.6362 28.4764C27.603 29.1829 26.4279 29.663 25.1111 29.9167V34.2222H31.5556V37H15.4444ZM15.4444 22.8333V17.5556H12.2222V18.9444C12.2222 19.8241 12.5176 20.6171 13.1083 21.3236C13.6991 22.0301 14.4778 22.5333 15.4444 22.8333ZM31.5556 22.8333C32.5222 22.5324 33.3009 22.0287 33.8917 21.3222C34.4824 20.6157 34.7778 19.8231 34.7778 18.9444V17.5556H31.5556V22.8333Z" fill="white"/>
</svg>
