<svg width="35" height="35" viewBox="0 0 35 35" fill="none" xmlns="http://www.w3.org/2000/svg">
<g clip-path="url(#clip0_1728_1055)">
<path d="M17.5 0C18.6603 0 19.7731 0.460936 20.5936 1.28141C21.4141 2.10188 21.875 3.21468 21.875 4.375C21.875 5.53532 21.4141 6.64812 20.5936 7.46859C19.7731 8.28906 18.6603 8.75 17.5 8.75C16.3397 8.75 15.2269 8.28906 14.4064 7.46859C13.5859 6.64812 13.125 5.53532 13.125 4.375C13.125 3.21468 13.5859 2.10188 14.4064 1.28141C15.2269 0.460936 16.3397 0 17.5 0ZM24.0625 21.3281C24.0625 23.0371 23.1943 24.541 21.875 25.4229V31.7188C21.875 33.5303 20.4053 35 18.5938 35H16.4062C14.5947 35 13.125 33.5303 13.125 31.7188V25.4229C11.8057 24.541 10.9375 23.0371 10.9375 21.3281V18.5938C10.9375 14.9707 13.877 12.0312 17.5 12.0312C21.123 12.0312 24.0625 14.9707 24.0625 18.5938V21.3281ZM6.5625 2.1875C7.06522 2.1875 7.56301 2.28652 8.02746 2.4789C8.49191 2.67128 8.91392 2.95326 9.26939 3.30873C9.62487 3.66421 9.90685 4.08622 10.0992 4.55066C10.2916 5.01511 10.3906 5.51291 10.3906 6.01562C10.3906 6.51834 10.2916 7.01614 10.0992 7.48059C9.90685 7.94503 9.62487 8.36704 9.26939 8.72252C8.91392 9.07799 8.49191 9.35997 8.02746 9.55235C7.56301 9.74473 7.06522 9.84375 6.5625 9.84375C6.05978 9.84375 5.56199 9.74473 5.09754 9.55235C4.63309 9.35997 4.21108 9.07799 3.85561 8.72252C3.50013 8.36704 3.21815 7.94503 3.02577 7.48059C2.83339 7.01614 2.73438 6.51834 2.73438 6.01562C2.73438 5.51291 2.83339 5.01511 3.02577 4.55066C3.21815 4.08622 3.50013 3.66421 3.85561 3.30873C4.21108 2.95326 4.63309 2.67128 5.09754 2.4789C5.56199 2.28652 6.05978 2.1875 6.5625 2.1875ZM7.65625 18.5938V20.7812C7.65625 23.0029 8.4834 25.0264 9.84375 26.5713V31.7188C9.84375 31.8008 9.84375 31.8896 9.85059 31.9717C9.26953 32.4912 8.50391 32.8125 7.65625 32.8125H5.46875C3.65723 32.8125 2.1875 31.3428 2.1875 29.5312V25.6621C0.881836 24.9102 0 23.4951 0 21.875V19.6875C0 16.0645 2.93945 13.125 6.5625 13.125C7.43066 13.125 8.25781 13.2959 9.0166 13.5967C8.15527 15.0596 7.65625 16.7686 7.65625 18.5938ZM25.1562 31.7188V26.5713C26.5166 25.0332 27.3438 23.0029 27.3438 20.7812V18.5938C27.3438 16.7686 26.8447 15.0664 25.9834 13.5967C26.7422 13.2891 27.5693 13.125 28.4375 13.125C32.0605 13.125 35 16.0645 35 19.6875V21.875C35 23.4951 34.1182 24.9102 32.8125 25.6621V29.5312C32.8125 31.3428 31.3428 32.8125 29.5312 32.8125H27.3438C26.5029 32.8125 25.7305 32.498 25.1494 31.9717C25.1494 31.8896 25.1562 31.8008 25.1562 31.7188ZM28.4375 2.1875C28.9402 2.1875 29.438 2.28652 29.9025 2.4789C30.3669 2.67128 30.7889 2.95326 31.1444 3.30873C31.4999 3.66421 31.7818 4.08622 31.9742 4.55066C32.1666 5.01511 32.2656 5.51291 32.2656 6.01562C32.2656 6.51834 32.1666 7.01614 31.9742 7.48059C31.7818 7.94503 31.4999 8.36704 31.1444 8.72252C30.7889 9.07799 30.3669 9.35997 29.9025 9.55235C29.438 9.74473 28.9402 9.84375 28.4375 9.84375C27.9348 9.84375 27.437 9.74473 26.9725 9.55235C26.5081 9.35997 26.0861 9.07799 25.7306 8.72252C25.3751 8.36704 25.0932 7.94503 24.9008 7.48059C24.7084 7.01614 24.6094 6.51834 24.6094 6.01562C24.6094 5.51291 24.7084 5.01511 24.9008 4.55066C25.0932 4.08622 25.3751 3.66421 25.7306 3.30873C26.0861 2.95326 26.5081 2.67128 26.9725 2.4789C27.437 2.28652 27.9348 2.1875 28.4375 2.1875Z" fill="black"/>
</g>
<defs>
<clipPath id="clip0_1728_1055">
<rect width="35" height="35" fill="white"/>
</clipPath>
</defs>
</svg>
