<svg width="48" height="48" viewBox="0 0 48 48" fill="none" xmlns="http://www.w3.org/2000/svg">
<circle cx="24" cy="24" r="24" fill="#7B2828"/>
<path d="M35 12H13V14.5983L20.9888 20.2627C18.5643 21.0181 16.5564 22.6521 15.4065 24.8057C14.2565 26.9592 14.0586 29.4561 14.8562 31.7474C15.2509 32.8825 15.8785 33.9329 16.7031 34.8386C17.5278 35.7443 18.5334 36.4875 19.6623 37.0257C20.7912 37.5639 22.0214 37.8865 23.2824 37.975C24.5434 38.0635 25.8105 37.9163 27.0112 37.5417C28.9369 36.9437 30.6136 35.7865 31.8022 34.2352C32.9909 32.6838 33.6308 30.8175 33.6308 28.9022C33.6308 26.987 32.9909 25.1207 31.8022 23.5693C30.6136 22.018 28.9369 20.8608 27.0112 20.2627L35 14.5983V12ZM28.0425 34.7355L24 32.501L19.9575 34.7355L21.03 30.4093L17.4688 27.4991L22.1575 27.1224L24 23.043L25.8425 27.1224L30.5312 27.4991L26.97 30.4093L28.0425 34.7355Z" fill="white"/>
</svg>
